<mxfile host="app.diagrams.net" modified="2024-03-16T07:42:34.120Z" agent="Mozilla/5.0 (Windows NT 10.0; Win64; x64) AppleWebKit/537.36 (KHTML, like Gecko) Chrome/122.0.0.0 Safari/537.36 Edg/122.0.0.0" version="24.0.5" etag="LufoH5ZwcUfU5_dFxLJS" type="github">
  <diagram name="第 1 页" id="pnsoyHCL8BwTwaqCSruE">
    <mxGraphModel>
      <root>
        <mxCell id="0" />
        <mxCell id="1" parent="0" />
      </root>
    </mxGraphModel>
  </diagram>
</mxfile>
